<?xml version="1.0" standalone="no"?>
<!DOCTYPE svg PUBLIC "-//W3C//DTD SVG 20010904//EN"
 "http://www.w3.org/TR/2001/REC-SVG-20010904/DTD/svg10.dtd">
<svg version="1.0" xmlns="http://www.w3.org/2000/svg"
 width="1024.000000pt" height="1024.000000pt" viewBox="0 0 1024.000000 1024.000000"
 preserveAspectRatio="xMidYMid meet">

<g transform="translate(0.000000,1024.000000) scale(0.100000,-0.100000)"
fill="#000000" stroke="none">
<path d="M4099 8577 c-24 -13 -57 -43 -74 -66 l-30 -43 -3 -306 c-4 -329 0
-359 45 -412 43 -52 96 -73 173 -68 88 5 137 36 174 109 l26 53 0 285 c0 169
-4 301 -11 324 -33 120 -187 183 -300 124z"/>
<path d="M5694 8000 c-18 -4 -47 -16 -66 -28 -45 -28 -411 -399 -431 -437 -39
-77 -30 -163 26 -230 59 -72 175 -97 255 -56 46 24 434 414 456 458 54 108
-20 262 -140 292 -48 12 -55 12 -100 1z"/>
<path d="M2585 7981 c-105 -48 -154 -174 -107 -273 22 -48 400 -434 449 -459
23 -12 58 -19 93 -19 113 0 199 76 208 184 8 97 -2 112 -227 339 -113 115
-223 217 -243 228 -47 24 -121 24 -173 0z"/>
<path d="M3954 7501 c-135 -24 -219 -52 -339 -111 -174 -86 -342 -230 -458
-393 -255 -358 -308 -844 -136 -1256 124 -299 393 -569 686 -691 83 -35 300
-93 318 -86 6 2 17 24 24 47 20 69 94 218 143 290 l46 66 -102 12 c-266 30
-454 133 -616 336 -108 136 -166 294 -177 481 -40 681 667 1129 1277 809 239
-126 420 -392 452 -666 13 -107 1 -250 -26 -327 -9 -23 -14 -42 -12 -42 2 0
35 12 72 26 83 31 213 60 313 70 l73 7 -5 186 c-4 156 -9 202 -30 286 -99 384
-345 688 -690 850 -191 89 -304 115 -537 120 -140 4 -195 1 -276 -14z"/>
<path d="M2007 6490 c-120 -36 -180 -196 -117 -310 14 -24 45 -58 68 -75 l44
-30 289 -3 c188 -2 303 1 330 8 78 21 149 118 149 205 0 85 -70 183 -146 204
-46 13 -575 13 -617 1z"/>
<path d="M5775 6481 c-141 -65 -169 -255 -52 -358 59 -51 84 -55 398 -51 l286
3 41 28 c113 75 136 225 49 324 -61 70 -77 73 -397 73 -256 0 -289 -2 -325
-19z"/>
<path d="M5460 5880 c-385 -54 -686 -204 -946 -471 -118 -122 -188 -218 -254
-349 -60 -121 -96 -219 -124 -345 l-23 -100 -119 -12 c-154 -16 -272 -50 -409
-118 -355 -174 -596 -496 -661 -885 -24 -145 -15 -367 19 -501 130 -501 519
-841 1031 -900 61 -7 618 -9 1691 -7 l1600 4 110 27 c60 15 141 39 180 53 460
173 824 608 900 1074 19 123 20 351 0 466 -33 184 -120 390 -231 545 -114 158
-317 331 -492 418 -150 75 -372 131 -521 131 l-76 0 -25 62 c-13 34 -48 101
-76 149 -228 385 -629 666 -1062 745 -102 18 -417 27 -512 14z m447 -434 c210
-45 398 -145 555 -294 131 -125 230 -274 288 -430 51 -140 62 -161 98 -193 54
-48 73 -51 267 -50 151 1 193 -2 257 -18 180 -46 278 -102 408 -231 124 -123
199 -255 247 -430 27 -101 24 -338 -6 -450 -85 -316 -323 -574 -625 -676 -164
-56 -97 -54 -1796 -54 -1704 0 -1641 -2 -1791 55 -124 48 -228 128 -313 239
-62 82 -89 133 -122 230 -126 369 45 785 394 960 135 68 295 90 466 66 91 -14
159 5 215 58 45 43 54 70 76 237 52 392 278 712 622 884 116 58 180 77 383
115 49 9 306 -3 377 -18z"/>
<path d="M2985 5313 c-79 -18 -95 -30 -299 -232 -131 -130 -215 -221 -227
-246 -37 -79 -18 -186 43 -241 61 -56 156 -72 235 -39 51 21 448 415 474 470
36 77 19 159 -48 227 -45 46 -125 73 -178 61z"/>
</g>
</svg>
