<svg width="31" height="32" viewBox="0 0 31 32" fill="none" xmlns="http://www.w3.org/2000/svg">
<path d="M19.5556 3.55556C19.5556 7.43822 10.8116 9.46844 10.8116 15.2942C10.8116 17.2356 11.776 19.2658 12.7467 19.2658H26.3387C27.3102 19.2658 28.2871 17.2356 28.2871 15.2942C28.2871 9.46755 19.5556 7.43822 19.5556 3.55556Z" fill="#F4900C"/>
<path d="M30.2222 29.768C30.2222 30.8409 29.9653 31.7102 28.28 31.7102H10.8044C9.12 31.7102 8.88889 30.8409 8.88889 29.768V20.0604C8.88889 18.9884 9.12 18.3769 10.8053 18.3769H28.2809C29.9653 18.3769 30.2222 18.9884 30.2222 20.0604V29.768Z" fill="#FFD983"/>
<path d="M19.5556 29.9324C19.5556 30.4039 19.3683 30.8561 19.0349 31.1895C18.7015 31.5229 18.2493 31.7102 17.7778 31.7102H1.77778C1.30628 31.7102 0.854097 31.5229 0.520699 31.1895C0.187301 30.8561 0 30.4039 0 29.9324V29.0436C0 28.5721 0.187301 28.1199 0.520699 27.7865C0.854097 27.4531 1.30628 27.2658 1.77778 27.2658H17.7778C18.2493 27.2658 18.7015 27.4531 19.0349 27.7865C19.3683 28.1199 19.5556 28.5721 19.5556 29.0436V29.9324Z" fill="#FFD983"/>
<path d="M22.2222 25.488C22.2222 22.8213 20.5369 21.0436 19.5556 21.0436C18.5742 21.0436 16.8889 22.8213 16.8889 25.488V31.7102H22.2222V25.488ZM15.1111 27.5618C15.1111 25.784 13.9876 24.5991 13.3333 24.5991C12.6791 24.5991 11.5556 25.784 11.5556 27.5618V31.7102H15.1111V27.5618ZM27.5556 27.5618C27.5556 25.784 26.432 24.5991 25.7778 24.5991C25.1236 24.5991 24 25.784 24 27.5618V31.7102H27.5556V27.5618Z" fill="#662113"/>
<path d="M7.11111 29.9324C7.11111 30.4039 6.92381 30.8561 6.59041 31.1895C6.25701 31.5229 5.80483 31.7102 5.33333 31.7102H3.55556C3.08406 31.7102 2.63187 31.5229 2.29848 31.1895C1.96508 30.8561 1.77778 30.4039 1.77778 29.9324V6.82133C1.77778 6.34984 1.96508 5.89765 2.29848 5.56425C2.63187 5.23086 3.08406 5.04356 3.55556 5.04356H5.33333C5.80483 5.04356 6.25701 5.23086 6.59041 5.56425C6.92381 5.89765 7.11111 6.34984 7.11111 6.82133V29.9324Z" fill="#FFD983"/>
<path d="M4.44 0C4.44 1.63289 1.92267 2.59378 1.92267 5.04444C1.92267 5.86133 2.2 6.82222 2.48 6.82222H6.39289C6.672 6.82222 6.95378 5.86133 6.95378 5.04444C6.95378 2.59378 4.44 1.63289 4.44 0Z" fill="#F4900C"/>
<path d="M8 10.3769C8 10.6126 7.90635 10.8387 7.73965 11.0054C7.57295 11.1721 7.34686 11.2658 7.11111 11.2658H1.77778C1.54203 11.2658 1.31594 11.1721 1.14924 11.0054C0.982539 10.8387 0.888889 10.6126 0.888889 10.3769C0.888889 10.1411 0.982539 9.91505 1.14924 9.74835C1.31594 9.58165 1.54203 9.488 1.77778 9.488H7.11111C7.34686 9.488 7.57295 9.58165 7.73965 9.74835C7.90635 9.91505 8 10.1411 8 10.3769ZM8 6.82133C8 7.05708 7.90635 7.28317 7.73965 7.44987C7.57295 7.61657 7.34686 7.71022 7.11111 7.71022H1.77778C1.54203 7.71022 1.31594 7.61657 1.14924 7.44987C0.982539 7.28317 0.888889 7.05708 0.888889 6.82133C0.888889 6.58559 0.982539 6.35949 1.14924 6.19279C1.31594 6.0261 1.54203 5.93244 1.77778 5.93244H7.11111C7.34686 5.93244 7.57295 6.0261 7.73965 6.19279C7.90635 6.35949 8 6.58559 8 6.82133Z" fill="#FFAC33"/>
</svg>
